<svg width="9" height="8" viewBox="0 0 9 8" fill="none" xmlns="http://www.w3.org/2000/svg">
    <path d="M8.06945 4.18859C8.06945 2.10424 6.37219 0.377197 4.25806 0.377197C2.14393 0.377197 0.47644 2.07446 0.47644 4.18859C0.47644 6.30272 2.1737 7.99999 4.28784 7.99999C5.27046 7.99999 6.16376 7.61289 6.84862 7.01736C6.87839 6.98759 6.90817 6.98758 6.90817 6.95781C7.62281 6.24317 8.06945 5.26055 8.06945 4.18859ZM4.19851 1.71714L3.99007 2.34245C3.90074 2.64021 3.5732 2.81887 3.27543 2.72954L2.44169 2.55088C2.85856 2.04468 3.48387 1.74692 4.19851 1.71714ZM1.84616 3.77172L2.94789 4.03971C3.09677 4.06949 3.24566 4.09926 3.39454 4.09926C4.22828 4.09926 4.9727 3.56329 5.24068 2.75932L5.4789 2.04468C6.22331 2.46155 6.72951 3.26552 6.72951 4.18859C6.72951 4.60546 6.64018 4.99256 6.46152 5.3201C6.22331 5.11166 5.95532 4.96278 5.62778 4.90323C5.00247 4.75435 4.31761 4.933 3.84119 5.37965L2.88834 6.27295C2.23325 5.8263 1.78661 5.08189 1.78661 4.21837C1.81638 4.03971 1.81638 3.89083 1.84616 3.77172ZM5.53845 6.30272C5.21091 6.48138 4.85359 6.60049 4.46649 6.63027L4.79404 6.3325C4.94292 6.18362 5.15135 6.15384 5.33001 6.18362C5.38957 6.2134 5.4789 6.24317 5.53845 6.30272Z" fill="white"/>
</svg>